<svg width="64" height="64" viewBox="0 0 64 64" fill="none" xmlns="http://www.w3.org/2000/svg">
<circle cx="32" cy="32" r="31.5" stroke="black"/>
<path d="M22.5 42.33C20.64 42.33 19.21 41.5 18.21 39.84C17.21 38.18 16.71 35.82 16.71 32.76C16.71 29.8 17.21 27.47 18.21 25.77C19.21 24.05 20.64 23.19 22.5 23.19C24.36 23.19 25.79 24.05 26.79 25.77C27.79 27.47 28.29 29.8 28.29 32.76C28.29 35.82 27.79 38.18 26.79 39.84C25.79 41.5 24.36 42.33 22.5 42.33ZM18.87 32.76C18.87 34.04 18.96 35.18 19.14 36.18L25.5 27.99C25.2 27.05 24.79 26.32 24.27 25.8C23.77 25.28 23.18 25.02 22.5 25.02C21.36 25.02 20.47 25.72 19.83 27.12C19.19 28.52 18.87 30.4 18.87 32.76ZM22.5 40.5C23.64 40.5 24.53 39.83 25.17 38.49C25.81 37.15 26.13 35.24 26.13 32.76C26.13 31.66 26.06 30.66 25.92 29.76L19.56 37.83C20.18 39.61 21.16 40.5 22.5 40.5ZM39.9 42V25.89L36.12 27L35.64 25.83L40.53 23.28H42V42H39.9Z" fill="black"/>
</svg>
